<?xml version="1.0" encoding="UTF-8"?>
<svg version="1.1" xmlns="http://www.w3.org/2000/svg" width="378" height="366">
<path d="M0 0 C3.00735201 0.68112771 4.01477298 2.12625697 6.03515625 4.4609375 C7.58020558 7.01600075 8.88606774 9.67345441 10.1953125 12.35546875 C10.58134644 13.13046219 10.96738037 13.90545563 11.3651123 14.70393372 C12.61726872 17.22323764 13.85763309 19.74814246 15.09765625 22.2734375 C15.96487334 24.02484434 16.83263348 25.7759824 17.70092773 27.52685547 C22.49137428 37.20471638 27.21025454 46.91480066 31.82250977 56.67895508 C36.47089414 66.47702889 41.3648543 76.15179974 46.23120117 85.84277344 C51.20393448 95.74943047 56.09998472 105.68202665 60.83496094 115.70507812 C65.70299353 125.96020238 70.82319312 136.09029941 75.93579102 146.22509766 C79.35342004 153.00909053 82.73686744 159.80984091 86.01171875 166.6640625 C86.57971191 167.84645508 87.14770508 169.02884766 87.73291016 170.24707031 C89.55636551 174.74725146 89.83111452 177.6851879 89.03515625 182.4609375 C87.45004954 184.33504156 86.23470432 185.36116346 84.03515625 186.4609375 C68.51134078 186.54974651 68.51134078 186.54974651 61.828125 182.43359375 C59.12803759 180.96884045 56.32374961 180.59678781 53.30859375 180.1484375 C51.03515625 179.4609375 51.03515625 179.4609375 48.234375 177.48828125 C43.59266044 174.54682843 38.96058947 174.23771187 33.59375 173.46484375 C29.41397278 172.28569694 27.73969269 170.80893242 25.03515625 167.4609375 C24.36848958 165.4609375 23.70182292 163.4609375 23.03515625 161.4609375 C21.24854582 160.363521 21.24854582 160.363521 19.03515625 159.4609375 C17.34580616 158.65229125 15.65838548 157.83960505 13.97265625 157.0234375 C13.11542969 156.61222656 12.25820312 156.20101562 11.375 155.77734375 C9.03515625 154.4609375 9.03515625 154.4609375 7.5625 152.84765625 C5.37385791 150.86052597 3.5708495 150.91827455 0.66015625 150.7109375 C-0.27570313 150.63359375 -1.2115625 150.55625 -2.17578125 150.4765625 C-4.92694361 150.46114983 -7.29656026 150.82054946 -9.96484375 151.4609375 C-9.96484375 152.1209375 -9.96484375 152.7809375 -9.96484375 153.4609375 C-13.5224474 156.07682253 -16.60961522 156.95451558 -20.96484375 157.4609375 C-21.29484375 158.4509375 -21.62484375 159.4409375 -21.96484375 160.4609375 C-22.56296875 160.8528125 -23.16109375 161.2446875 -23.77734375 161.6484375 C-26.15484173 163.61836439 -26.58045677 164.73032467 -27.71484375 167.5234375 C-29.4034264 171.1174247 -29.65105944 171.34393318 -33.65234375 172.8359375 C-35.0855269 173.07214732 -36.5236999 173.27951691 -37.96484375 173.4609375 C-44.00084974 174.47764064 -48.50636483 176.16098142 -53.76953125 179.296875 C-55.92268578 180.43858327 -57.78362316 181.05455151 -60.15234375 181.5859375 C-63.9360986 182.28589256 -63.9360986 182.28589256 -66.96484375 184.0234375 C-70.63519875 185.78214927 -73.96161874 186.23484174 -77.96484375 186.4609375 C-78.96773437 186.52539062 -79.970625 186.58984375 -81.00390625 186.65625 C-82.06351563 186.69492188 -83.123125 186.73359375 -84.21484375 186.7734375 C-85.21 186.81082031 -86.20515625 186.84820312 -87.23046875 186.88671875 C-89.96484375 186.4609375 -89.96484375 186.4609375 -92.38671875 185.00390625 C-94.45690196 181.66804171 -94.22280844 179.72533364 -93.59716797 175.92431641 C-92.47357188 171.54706369 -90.56194284 167.66772488 -88.52734375 163.6484375 C-88.05361328 162.68486328 -87.57988281 161.72128906 -87.09179688 160.72851562 C-85.71398212 157.9366732 -84.32264559 155.15206445 -82.9241333 152.37054443 C-81.5285567 149.59244397 -80.13985906 146.81091687 -78.75036621 144.0297699 C-76.03269375 138.59036296 -73.31247522 133.15225188 -70.58447266 127.71801758 C-66.00602626 118.59161527 -61.51913221 109.43102279 -57.15625 100.19921875 C-52.69458475 90.80268133 -48.01024139 81.51936879 -43.34155273 72.22460938 C-38.94440031 63.46682733 -34.59453873 54.69429096 -30.40234375 45.8359375 C-26.1947124 36.97044508 -21.90802934 28.14531912 -17.55349731 19.35113525 C-16.83228394 17.89188767 -16.11388148 16.43124718 -15.39840698 14.96917725 C-14.39707365 12.92471865 -13.38547315 10.88566664 -12.37109375 8.84765625 C-12.07155289 8.23110672 -11.77201202 7.61455719 -11.46339417 6.97932434 C-8.63608509 1.3533244 -6.25860425 0.26529729 0 0 Z M-4.33984375 79.7109375 C-5.20609375 80.6184375 -6.07234375 81.5259375 -6.96484375 82.4609375 C-7.77308594 83.23050781 -7.77308594 83.23050781 -8.59765625 84.015625 C-10.77670881 87.91301616 -10.42047151 91.94308548 -10.46484375 96.3359375 C-10.53883254 103.59740922 -10.83466798 108.82805685 -15.7890625 114.578125 C-16.71138672 115.44824219 -16.71138672 115.44824219 -17.65234375 116.3359375 C-18.27496094 116.93148437 -18.89757812 117.52703125 -19.5390625 118.140625 C-20.00957031 118.57632813 -20.48007813 119.01203125 -20.96484375 119.4609375 C-15.97663225 124.449149 -8.80045772 124.80858432 -2.08984375 124.8984375 C4.87604344 124.88700463 10.74941253 123.44400232 17.03515625 120.4609375 C14.95507204 117.22525095 12.86040863 114.18793808 10.34765625 111.2734375 C7.53013988 107.8467284 6.91796396 105.62097446 6.96484375 101.328125 C7.00277512 88.9972661 7.00277512 88.9972661 0.62890625 78.76171875 C-1.96844155 76.64182459 -1.6916234 77.20209717 -4.33984375 79.7109375 Z " fill="#FCFCFC" transform="translate(190.96484375,4.5390625)"/>
<path d="M0 0 C2.13676695 1.75390798 3.80775713 3.40067051 5.05078125 5.88671875 C5.71078125 5.88671875 6.37078125 5.88671875 7.05078125 5.88671875 C7.44265625 4.93796875 7.83453125 3.98921875 8.23828125 3.01171875 C10.05078125 -0.11328125 10.05078125 -0.11328125 12.17578125 -1.48828125 C19.16243828 -3.00711973 24.75065168 -2.52585143 31.05078125 0.88671875 C32.45535862 3.69587349 32.29973282 5.77482409 32.05078125 8.88671875 C31.55449219 9.49257812 31.05820313 10.0984375 30.546875 10.72265625 C28.61062002 13.52340105 28.74305488 15.27038036 28.86328125 18.63671875 C28.89035156 19.6215625 28.91742188 20.60640625 28.9453125 21.62109375 C28.99751953 22.74257812 28.99751953 22.74257812 29.05078125 23.88671875 C29.30770752 23.23598389 29.56463379 22.58524902 29.8293457 21.91479492 C30.99932778 18.96469156 32.18114759 16.01947268 33.36328125 13.07421875 C33.76740234 12.05005859 34.17152344 11.02589844 34.58789062 9.97070312 C35.1824707 8.49633789 35.1824707 8.49633789 35.7890625 6.9921875 C36.15040283 6.08621826 36.51174316 5.18024902 36.8840332 4.24682617 C38.04372606 1.90099005 39.01853783 0.5138681 41.05078125 -1.11328125 C45.45264455 -2.3572861 48.00255886 -2.19540837 52.05078125 -0.11328125 C57.90349438 7.55343069 60.65565036 18.90478746 64.05078125 27.88671875 C64.38078125 22.60671875 64.71078125 17.32671875 65.05078125 11.88671875 C64.39078125 11.88671875 63.73078125 11.88671875 63.05078125 11.88671875 C61.46026826 8.70569277 61.65337747 5.34980885 62.05078125 1.88671875 C63.46424852 -0.30415551 64.34514242 -0.88753997 66.796875 -1.671875 C72.66100925 -2.8203103 79.16968682 -2.53308986 85.05078125 -1.55078125 C87.86107787 -0.94070653 87.86107787 -0.94070653 89.80276489 -1.5758667 C92.89939869 -2.31615315 95.83585118 -2.25705525 99.01904297 -2.27441406 C99.7122464 -2.27937897 100.40544983 -2.28434387 101.11965942 -2.28945923 C103.40660606 -2.3040312 105.69348336 -2.31087416 107.98046875 -2.31640625 C109.57463583 -2.32216134 111.16880291 -2.32791903 112.76296997 -2.3336792 C116.10353924 -2.34417474 119.44408454 -2.35002702 122.78466797 -2.35351562 C127.05736443 -2.35900047 131.32974224 -2.38303422 135.60233879 -2.41148758 C138.89495765 -2.43014391 142.18750015 -2.43532113 145.48016739 -2.4368515 C147.05498117 -2.43987128 148.62979382 -2.44787699 150.20455551 -2.46103668 C152.4111916 -2.47816212 154.61705421 -2.47620168 156.82373047 -2.46972656 C158.07741425 -2.47337219 159.33109802 -2.47701782 160.62277222 -2.48077393 C164.40274728 -2.07554945 166.82431886 -1.09394017 170.05078125 0.88671875 C171.45535862 3.69587349 171.29973282 5.77482409 171.05078125 8.88671875 C170.31287354 9.81000977 170.31287354 9.81000977 169.56005859 10.75195312 C167.68271599 13.40732092 167.66424571 14.94197065 167.65234375 18.16796875 C167.64847656 19.17472656 167.64460937 20.18148437 167.640625 21.21875 C167.65222656 22.26417969 167.66382813 23.30960938 167.67578125 24.38671875 C167.65837891 25.95486328 167.65837891 25.95486328 167.640625 27.5546875 C167.64449219 28.56144531 167.64835938 29.56820312 167.65234375 30.60546875 C167.65741943 31.9812207 167.65741943 31.9812207 167.66259766 33.38476562 C168.11938668 36.32890017 169.20278131 37.60209353 171.05078125 39.88671875 C171.48828125 42.88671875 171.48828125 42.88671875 171.05078125 45.88671875 C168.81871694 48.73452494 167.50085126 49.73669541 164.05078125 50.88671875 C161.76743529 50.98166564 159.48136362 51.01466374 157.19604492 51.01611328 C156.50298752 51.0178656 155.80993011 51.01961792 155.09587097 51.02142334 C152.80347187 51.0258262 150.5111499 51.0229084 148.21875 51.01953125 C146.62315354 51.02020497 145.02755717 51.02117556 143.43196106 51.02243042 C140.08540877 51.02390546 136.73888317 51.02175989 133.39233398 51.01708984 C129.11187954 51.01140652 124.83148799 51.01466391 120.55103588 51.02066231 C117.25413036 51.02428496 113.95723961 51.02312126 110.66033363 51.02053452 C109.08274643 51.01986924 107.50515787 51.02067966 105.92757225 51.02301407 C103.71624608 51.02556704 101.50501994 51.02166227 99.29370117 51.01611328 C98.03700119 51.01531769 96.78030121 51.01452209 95.48551941 51.01370239 C92.24999632 50.89408381 89.23526708 50.43535366 86.05078125 49.88671875 C84.37587392 50.17581098 82.70844326 50.51115844 81.05078125 50.88671875 C76.24082007 51.133979 71.4289679 51.11782444 66.61328125 51.13671875 C64.6477832 51.16765625 64.6477832 51.16765625 62.64257812 51.19921875 C60.74282227 51.20695312 60.74282227 51.20695312 58.8046875 51.21484375 C57.07714233 51.2288623 57.07714233 51.2288623 55.31469727 51.24316406 C51.65656245 50.84366695 49.28545703 49.57437568 46.05078125 47.88671875 C43.35037735 48.53335442 43.35037735 48.53335442 41.05078125 49.88671875 C33.4118158 52.43304057 21.33967673 51.85246251 14.05078125 48.51171875 C10.46400439 45.59746255 10.46400439 45.59746255 9.05078125 43.88671875 C9.05078125 43.22671875 9.05078125 42.56671875 9.05078125 41.88671875 C8.39078125 41.88671875 7.73078125 41.88671875 7.05078125 41.88671875 C6.86515625 42.81484375 6.67953125 43.74296875 6.48828125 44.69921875 C5.05078125 47.88671875 5.05078125 47.88671875 2.05078125 49.76171875 C-3.89593432 51.8430692 -10.26765891 51.85509439 -16.07421875 49.38671875 C-17.02296875 48.89171875 -17.97171875 48.39671875 -18.94921875 47.88671875 C-19.03043799 46.28339084 -19.08851009 44.67887849 -19.13671875 43.07421875 C-19.18892578 41.73423828 -19.18892578 41.73423828 -19.2421875 40.3671875 C-18.94921875 37.88671875 -18.94921875 37.88671875 -17.45581055 36.54418945 C-15.41044064 34.29398425 -15.5622541 32.8936992 -15.55078125 29.88671875 C-15.54691406 28.91734375 -15.54304688 27.94796875 -15.5390625 26.94921875 C-15.55066406 25.93859375 -15.56226562 24.92796875 -15.57421875 23.88671875 C-15.56261719 22.87609375 -15.55101563 21.86546875 -15.5390625 20.82421875 C-15.54292969 19.85484375 -15.54679687 18.88546875 -15.55078125 17.88671875 C-15.55416504 16.99984375 -15.55754883 16.11296875 -15.56103516 15.19921875 C-16.02406215 12.44085921 -16.88638907 11.68632277 -18.94921875 9.88671875 C-19.67071179 6.378282 -19.66026149 2.988835 -17.69921875 -0.05078125 C-12.602288 -3.14534635 -5.12843133 -2.92906398 0 0 Z M86.05078125 11.88671875 C85.72078125 13.20671875 85.39078125 14.52671875 85.05078125 15.88671875 C86.04078125 15.88671875 87.03078125 15.88671875 88.05078125 15.88671875 C88.05078125 14.56671875 88.05078125 13.24671875 88.05078125 11.88671875 C87.39078125 11.88671875 86.73078125 11.88671875 86.05078125 11.88671875 Z M108.05078125 12.88671875 C108.05078125 20.47671875 108.05078125 28.06671875 108.05078125 35.88671875 C108.71078125 35.88671875 109.37078125 35.88671875 110.05078125 35.88671875 C110.05078125 28.29671875 110.05078125 20.70671875 110.05078125 12.88671875 C109.39078125 12.88671875 108.73078125 12.88671875 108.05078125 12.88671875 Z M85.05078125 31.88671875 C85.38078125 33.53671875 85.71078125 35.18671875 86.05078125 36.88671875 C86.71078125 36.55671875 87.37078125 36.22671875 88.05078125 35.88671875 C88.05078125 34.56671875 88.05078125 33.24671875 88.05078125 31.88671875 C87.06078125 31.88671875 86.07078125 31.88671875 85.05078125 31.88671875 Z " fill="#000000" transform="translate(108.94921875,219.11328125)"/>
<path d="M0 0 C2.76947582 3.71016275 4.0130739 7.80664322 5.4765625 12.16796875 C6.066434 13.90325882 6.66247522 15.63646789 7.265625 17.3671875 C7.5229541 18.13248779 7.7802832 18.89778809 8.04541016 19.6862793 C8.71108253 21.6737994 8.71108253 21.6737994 10.8515625 22.48046875 C11.0784375 21.24296875 11.3053125 20.00546875 11.5390625 18.73046875 C13.2244194 11.18819778 15.60375973 2.44463204 21.8515625 -2.51953125 C28.50363809 -4.59692363 37.64588776 -4.82770204 44.1015625 -2.08203125 C46.8515625 -0.51953125 46.8515625 -0.51953125 47.8515625 0.48046875 C48.16015625 2.40625 48.16015625 2.40625 48.2890625 4.79296875 C48.34964844 5.57285156 48.41023438 6.35273438 48.47265625 7.15625 C48.26769531 7.92324219 48.06273437 8.69023437 47.8515625 9.48046875 C46.37200073 10.31130981 46.37200073 10.31130981 44.86254883 11.15893555 C41.52896581 13.21940735 41.52896581 13.21940735 41.07519531 16.90039062 C41.03578888 18.24944189 41.03088819 19.59980192 41.0546875 20.94921875 C41.04607697 22.02520325 41.04607697 22.02520325 41.03729248 23.1229248 C41.03321905 24.63585579 41.04422575 26.14889302 41.06933594 27.66162109 C41.10148275 29.9747306 41.06964235 32.28085718 41.03125 34.59375 C41.03521504 36.06642163 41.04290282 37.53908893 41.0546875 39.01171875 C41.04254211 39.70036011 41.03039673 40.38900146 41.0178833 41.09851074 C41.01983766 43.32575907 41.01983766 43.32575907 41.8515625 46.48046875 C44.75541853 48.84759558 44.75541853 48.84759558 47.8515625 50.48046875 C48.578125 52.734375 48.578125 52.734375 48.4765625 55.04296875 C48.46882813 55.80738281 48.46109375 56.57179688 48.453125 57.359375 C47.65518027 60.17290738 46.28021802 60.96618752 43.8515625 62.48046875 C44.99044922 62.64482422 44.99044922 62.64482422 46.15234375 62.8125 C47.14621094 62.97105469 48.14007813 63.12960937 49.1640625 63.29296875 C50.64326172 63.51919922 50.64326172 63.51919922 52.15234375 63.75 C55.03125218 64.52909678 56.11434721 65.09605561 57.8515625 67.48046875 C58.64499701 70.83730704 59.1098802 73.418496 58.2890625 76.79296875 C56.15155988 79.30221095 54.01891282 79.63234535 50.8515625 80.48046875 C48.17752618 80.66829188 45.60931845 80.7643774 42.93774414 80.75512695 C42.16782639 80.76023788 41.39790863 80.76534882 40.60466003 80.77061462 C38.07359931 80.78445176 35.54281267 80.78355839 33.01171875 80.78125 C31.24344279 80.78514001 29.47516776 80.7894753 27.70689392 80.79423523 C24.00581835 80.80168468 20.30483819 80.80141531 16.60375977 80.79614258 C11.87159562 80.79034797 7.13982288 80.80728488 2.40772343 80.83048725 C-1.24266323 80.84525072 -4.89295616 80.84609277 -8.54336739 80.84297752 C-10.28760109 80.84348937 -12.03184024 80.84870129 -13.77604485 80.85878944 C-16.21936034 80.87118824 -18.66192033 80.86434214 -21.10522461 80.8527832 C-21.81869049 80.86042694 -22.53215637 80.86807068 -23.26724243 80.87594604 C-28.07557653 80.82591199 -33.56454286 80.06436339 -37.1484375 76.48046875 C-38.093699 68.70143152 -38.093699 68.70143152 -35.6484375 65.54296875 C-32.20345903 64.0788529 -28.80885192 63.27355854 -25.1484375 62.48046875 C-26.1384375 61.82046875 -27.1284375 61.16046875 -28.1484375 60.48046875 C-29.15494953 56.09495205 -29.6491862 53.71916291 -27.9609375 49.54296875 C-26.1484375 47.48046875 -26.1484375 47.48046875 -22.1484375 46.48046875 C-22.1484375 35.26046875 -22.1484375 24.04046875 -22.1484375 12.48046875 C-23.7984375 12.15046875 -25.4484375 11.82046875 -27.1484375 11.48046875 C-29.32150066 9.0110788 -29.32158422 6.58595893 -29.2109375 3.41796875 C-28.63118152 -0.00322862 -28.37839948 -0.35228618 -25.3984375 -2.51953125 C-17.45988731 -5.06709911 -6.92660705 -4.89900026 0 0 Z M-6.1484375 62.48046875 C-6.1484375 62.81046875 -6.1484375 63.14046875 -6.1484375 63.48046875 C2.7615625 63.48046875 11.6715625 63.48046875 20.8515625 63.48046875 C20.8515625 63.15046875 20.8515625 62.82046875 20.8515625 62.48046875 C20.24570312 62.41988281 19.63984375 62.35929687 19.015625 62.296875 C18.17773438 62.21308594 17.33984375 62.12929688 16.4765625 62.04296875 C15.56519531 61.9553125 14.65382813 61.86765625 13.71484375 61.77734375 C11.87577905 61.5866631 10.0391155 61.37006236 8.20703125 61.12109375 C2.79366239 60.42259454 -1.01166541 60.58209646 -6.1484375 62.48046875 Z " fill="#000000" transform="translate(315.1484375,220.51953125)"/>
<path d="M0 0 C3.00735201 0.68112771 4.01477298 2.12625697 6.03515625 4.4609375 C7.58020558 7.01600075 8.88606774 9.67345441 10.1953125 12.35546875 C10.58134644 13.13046219 10.96738037 13.90545563 11.3651123 14.70393372 C12.61726872 17.22323764 13.85763309 19.74814246 15.09765625 22.2734375 C15.96487334 24.02484434 16.83263348 25.7759824 17.70092773 27.52685547 C22.49137428 37.20471638 27.21025454 46.91480066 31.82250977 56.67895508 C36.47089414 66.47702889 41.3648543 76.15179974 46.23120117 85.84277344 C51.20393448 95.74943047 56.09998472 105.68202665 60.83496094 115.70507812 C65.70299353 125.96020238 70.82319312 136.09029941 75.93579102 146.22509766 C79.35342004 153.00909053 82.73686744 159.80984091 86.01171875 166.6640625 C86.57971191 167.84645508 87.14770508 169.02884766 87.73291016 170.24707031 C89.55636551 174.74725146 89.83111452 177.6851879 89.03515625 182.4609375 C87.45004954 184.33504156 86.23470432 185.36116346 84.03515625 186.4609375 C68.51134078 186.54974651 68.51134078 186.54974651 61.828125 182.43359375 C59.12803759 180.96884045 56.32374961 180.59678781 53.30859375 180.1484375 C51.03515625 179.4609375 51.03515625 179.4609375 48.234375 177.48828125 C43.59266044 174.54682843 38.96058947 174.23771187 33.59375 173.46484375 C29.41397278 172.28569694 27.73969269 170.80893242 25.03515625 167.4609375 C24.36848958 165.4609375 23.70182292 163.4609375 23.03515625 161.4609375 C21.24854582 160.363521 21.24854582 160.363521 19.03515625 159.4609375 C17.34580616 158.65229125 15.65838548 157.83960505 13.97265625 157.0234375 C13.11542969 156.61222656 12.25820312 156.20101562 11.375 155.77734375 C9.03515625 154.4609375 9.03515625 154.4609375 7.5625 152.84765625 C5.37385791 150.86052597 3.5708495 150.91827455 0.66015625 150.7109375 C-0.27570313 150.63359375 -1.2115625 150.55625 -2.17578125 150.4765625 C-4.92694361 150.46114983 -7.29656026 150.82054946 -9.96484375 151.4609375 C-9.96484375 152.1209375 -9.96484375 152.7809375 -9.96484375 153.4609375 C-13.5224474 156.07682253 -16.60961522 156.95451558 -20.96484375 157.4609375 C-21.29484375 158.4509375 -21.62484375 159.4409375 -21.96484375 160.4609375 C-22.56296875 160.8528125 -23.16109375 161.2446875 -23.77734375 161.6484375 C-26.15484173 163.61836439 -26.58045677 164.73032467 -27.71484375 167.5234375 C-29.4034264 171.1174247 -29.65105944 171.34393318 -33.65234375 172.8359375 C-35.0855269 173.07214732 -36.5236999 173.27951691 -37.96484375 173.4609375 C-44.00084974 174.47764064 -48.50636483 176.16098142 -53.76953125 179.296875 C-55.92268578 180.43858327 -57.78362316 181.05455151 -60.15234375 181.5859375 C-63.9360986 182.28589256 -63.9360986 182.28589256 -66.96484375 184.0234375 C-70.63519875 185.78214927 -73.96161874 186.23484174 -77.96484375 186.4609375 C-78.96773437 186.52539062 -79.970625 186.58984375 -81.00390625 186.65625 C-82.06351563 186.69492188 -83.123125 186.73359375 -84.21484375 186.7734375 C-85.21 186.81082031 -86.20515625 186.84820312 -87.23046875 186.88671875 C-89.96484375 186.4609375 -89.96484375 186.4609375 -92.38671875 185.00390625 C-94.45690196 181.66804171 -94.22280844 179.72533364 -93.59716797 175.92431641 C-92.47357188 171.54706369 -90.56194284 167.66772488 -88.52734375 163.6484375 C-88.05361328 162.68486328 -87.57988281 161.72128906 -87.09179688 160.72851562 C-85.71398212 157.9366732 -84.32264559 155.15206445 -82.9241333 152.37054443 C-81.5285567 149.59244397 -80.13985906 146.81091687 -78.75036621 144.0297699 C-76.03269375 138.59036296 -73.31247522 133.15225188 -70.58447266 127.71801758 C-66.00602626 118.59161527 -61.51913221 109.43102279 -57.15625 100.19921875 C-52.69458475 90.80268133 -48.01024139 81.51936879 -43.34155273 72.22460938 C-38.94440031 63.46682733 -34.59453873 54.69429096 -30.40234375 45.8359375 C-26.1947124 36.97044508 -21.90802934 28.14531912 -17.55349731 19.35113525 C-16.83228394 17.89188767 -16.11388148 16.43124718 -15.39840698 14.96917725 C-14.39707365 12.92471865 -13.38547315 10.88566664 -12.37109375 8.84765625 C-12.07155289 8.23110672 -11.77201202 7.61455719 -11.46339417 6.97932434 C-8.63608509 1.3533244 -6.25860425 0.26529729 0 0 Z M-2.96484375 1.4609375 C-16.6413149 28.58140009 -16.6413149 28.58140009 -29.87231445 55.92016602 C-34.2984304 65.25332975 -38.95357085 74.47039984 -43.58969116 83.70037842 C-48.40523976 93.29151801 -53.13305113 102.91383656 -57.72045898 112.61669922 C-61.8631362 121.3367359 -66.19520937 129.95904816 -70.52734375 138.5859375 C-75.42576661 148.34647968 -80.3120709 158.11008893 -85.02734375 167.9609375 C-85.43863525 168.81445801 -85.84992676 169.66797852 -86.27368164 170.54736328 C-88.24851786 174.33617983 -88.24851786 174.33617983 -88.96484375 178.4609375 C-87.48516051 178.32044232 -86.00609859 178.17338924 -84.52734375 178.0234375 C-83.70363281 177.94222656 -82.87992188 177.86101562 -82.03125 177.77734375 C-79.9782235 177.67162935 -79.9782235 177.67162935 -78.96484375 176.4609375 C-77.72734375 176.5228125 -76.48984375 176.5846875 -75.21484375 176.6484375 C-70.8170661 176.72627427 -69.37443347 175.20524142 -65.96484375 172.4609375 C-63.94140625 172.18359375 -63.94140625 172.18359375 -61.65234375 172.0859375 C-56.84077065 171.78971753 -54.39459748 169.92385488 -50.88671875 166.73828125 C-48.44666869 165.11654066 -46.83697802 165.31154797 -43.96484375 165.4609375 C-43.63484375 165.1309375 -43.30484375 164.8009375 -42.96484375 164.4609375 C-40.93478893 164.4609375 -38.90419948 164.46451338 -36.875 164.5234375 C-34.87726675 164.59120089 -34.87726675 164.59120089 -32.96484375 163.4609375 C-32.46521327 161.40175449 -32.46521327 161.40175449 -32.15234375 159.0234375 C-31.66796875 156.546875 -31.66796875 156.546875 -30.96484375 154.4609375 C-28.40234375 153.1484375 -28.40234375 153.1484375 -25.96484375 152.4609375 C-25.27424853 150.45431028 -25.27424853 150.45431028 -24.96484375 148.4609375 C-24.34996094 148.51894531 -23.73507813 148.57695312 -23.1015625 148.63671875 C-20.64346701 148.77393301 -18.40207043 148.82542365 -15.96484375 148.4609375 C-14.92694794 146.81760246 -13.92916451 145.14849883 -12.96484375 143.4609375 C-9.9688256 142.38668955 -7.12967676 141.9654761 -3.96484375 141.4609375 C-3.63484375 136.8409375 -3.30484375 132.2209375 -2.96484375 127.4609375 C-7.25484375 127.4609375 -11.54484375 127.4609375 -15.96484375 127.4609375 C-15.96484375 126.4709375 -15.96484375 125.4809375 -15.96484375 124.4609375 C-21.90484375 123.8009375 -27.84484375 123.1409375 -33.96484375 122.4609375 C-30.04933616 117.96226921 -26.11541484 113.4802893 -22.15234375 109.0234375 C-21.40339844 108.17910156 -20.65445313 107.33476563 -19.8828125 106.46484375 C-17.96484375 104.4609375 -17.96484375 104.4609375 -15.96484375 103.4609375 C-16.01366699 102.53365845 -16.01366699 102.53365845 -16.06347656 101.58764648 C-16.51843266 90.13402031 -16.7955888 80.59917791 -8.90234375 71.6484375 C-7.79804775 70.46434499 -6.68296061 69.29017475 -5.5546875 68.12890625 C-2.73266938 65.84146692 -2.73266938 65.84146692 -2.96484375 63.4609375 C-2.30484375 63.4609375 -1.64484375 63.4609375 -0.96484375 63.4609375 C-0.73925781 64.01007813 -0.51367188 64.55921875 -0.28125 65.125 C1.00498763 67.6314218 1.00498763 67.6314218 3.3828125 69.921875 C10.03610394 77.06339358 11.6274343 81.68774379 11.34765625 91.4609375 C11.12285524 99.54177991 11.12285524 99.54177991 14.74609375 106.51953125 C16.90460052 108.77166975 19.20816306 110.75799454 21.640625 112.70703125 C25.03515625 115.4609375 25.03515625 115.4609375 31.03515625 122.4609375 C24.76515625 123.1209375 18.49515625 123.7809375 12.03515625 124.4609375 C12.03515625 125.4509375 12.03515625 126.4409375 12.03515625 127.4609375 C8.07515625 127.4609375 4.11515625 127.4609375 0.03515625 127.4609375 C0.53015625 134.3909375 0.53015625 134.3909375 1.03515625 141.4609375 C3.41734375 141.80125 3.41734375 141.80125 5.84765625 142.1484375 C8.63671875 142.68359375 8.63671875 142.68359375 11.03515625 143.4609375 C12.08620008 145.09589457 13.09503943 146.75977374 14.03515625 148.4609375 C15.16953125 148.4609375 16.30390625 148.4609375 17.47265625 148.4609375 C18.64828125 148.4609375 19.82390625 148.4609375 21.03515625 148.4609375 C23.16015625 150.6484375 23.16015625 150.6484375 25.03515625 153.4609375 C26.33453125 154.6675 26.33453125 154.6675 27.66015625 155.8984375 C30.24132721 158.68338511 31.10334799 160.81841432 32.03515625 164.4609375 C32.62683594 164.44933594 33.21851563 164.43773437 33.828125 164.42578125 C39.67626054 164.35899993 44.88917001 164.33658871 50.03515625 167.4609375 C50.36515625 168.1209375 50.69515625 168.7809375 51.03515625 169.4609375 C53.88533941 171.20863223 56.28941343 171.76034543 59.59765625 172.0234375 C62.35600244 172.25136155 64.3756829 172.57444638 67.03515625 173.4609375 C67.36515625 174.4509375 67.69515625 175.4409375 68.03515625 176.4609375 C69.95328125 176.43 69.95328125 176.43 71.91015625 176.3984375 C75.78515625 176.3359375 75.78515625 176.3359375 78.03515625 177.4609375 C80.36814285 177.50116141 82.70222291 177.50413997 85.03515625 177.4609375 C79.07327852 164.81734052 73.03740036 152.21270179 66.91015625 139.6484375 C66.5032959 138.81320557 66.09643555 137.97797363 65.67724609 137.11743164 C59.89043818 125.24108315 54.03271502 113.40276816 48.09924316 101.59909058 C43.75195984 92.94820298 39.51912971 84.25089971 35.37695312 75.5 C30.86507776 66.01383159 26.1396809 56.63670056 21.42477417 47.25042725 C15.90166767 36.25067957 10.49781291 25.20506703 5.234375 14.078125 C3.22847928 9.84081344 1.14717408 5.64630921 -0.96484375 1.4609375 C-1.62484375 1.4609375 -2.28484375 1.4609375 -2.96484375 1.4609375 Z M-4.33984375 79.7109375 C-5.20609375 80.6184375 -6.07234375 81.5259375 -6.96484375 82.4609375 C-7.77308594 83.23050781 -7.77308594 83.23050781 -8.59765625 84.015625 C-10.77670881 87.91301616 -10.42047151 91.94308548 -10.46484375 96.3359375 C-10.53883254 103.59740922 -10.83466798 108.82805685 -15.7890625 114.578125 C-16.71138672 115.44824219 -16.71138672 115.44824219 -17.65234375 116.3359375 C-18.27496094 116.93148437 -18.89757812 117.52703125 -19.5390625 118.140625 C-20.00957031 118.57632813 -20.48007813 119.01203125 -20.96484375 119.4609375 C-15.97663225 124.449149 -8.80045772 124.80858432 -2.08984375 124.8984375 C4.87604344 124.88700463 10.74941253 123.44400232 17.03515625 120.4609375 C14.95507204 117.22525095 12.86040863 114.18793808 10.34765625 111.2734375 C7.53013988 107.8467284 6.91796396 105.62097446 6.96484375 101.328125 C7.00277512 88.9972661 7.00277512 88.9972661 0.62890625 78.76171875 C-1.96844155 76.64182459 -1.6916234 77.20209717 -4.33984375 79.7109375 Z " fill="#000000" transform="translate(190.96484375,4.5390625)"/>
<path d="M0 0 C0.79656006 0.03464355 1.59312012 0.06928711 2.41381836 0.10498047 C6.02370763 0.31339747 8.85918518 0.66036659 12.30859375 1.85546875 C13.17613281 2.13003906 14.04367188 2.40460938 14.9375 2.6875 C15.9275 2.0275 16.9175 1.3675 17.9375 0.6875 C20.41430664 0.3527832 20.41430664 0.3527832 23.34765625 0.23828125 C24.42080078 0.19509766 25.49394531 0.15191406 26.59960938 0.10742188 C27.72173828 0.07197266 28.84386719 0.03652344 30 0 C31.09505859 -0.04705078 32.19011719 -0.09410156 33.31835938 -0.14257812 C39.21559294 -0.3568314 44.8245482 -0.17962213 50.67822266 0.52197266 C53.45447675 0.72537662 56.06837635 0.34680409 58.81103516 -0.08154297 C63.23600936 -0.56214292 67.69275413 -0.12979391 72.125 0.125 C79.59018702 0.51990187 86.94218632 0.77769269 94.4140625 0.4296875 C97.60143722 0.75533259 99.36953343 1.80315593 101.9375 3.6875 C104.41893902 7.40965853 104.49459536 10.60672574 104.75 14.9375 C104.84571289 16.04544922 104.84571289 16.04544922 104.94335938 17.17578125 C105.26952844 22.38529841 104.65521097 26.07358075 101.9375 30.6875 C97.51494887 34.62077464 94.26496421 35.17174437 88.4375 35 C86.53484375 34.96326172 86.53484375 34.96326172 84.59375 34.92578125 C80.9375 34.6875 80.9375 34.6875 77.65625 34.10546875 C74.85149612 33.46244094 74.85149612 33.46244094 71.9375 34.6875 C66.5202437 34.96036921 61.10577059 34.96952566 55.75 34.0625 C52.38633142 33.73164735 51.03777013 33.80067143 47.95898438 34.6496582 C42.22803055 35.99591067 36.64391632 35.95680823 30.78125 35.91796875 C29.63893921 35.91751053 28.49662842 35.91705231 27.31970215 35.9165802 C24.91608637 35.91357311 22.51247227 35.90573343 20.10888672 35.89331055 C16.44882223 35.87505647 12.78901154 35.8728012 9.12890625 35.87304688 C6.783852 35.86813047 4.43879945 35.86230162 2.09375 35.85546875 C1.00912476 35.85435593 -0.07550049 35.8532431 -1.19299316 35.85209656 C-8.1107683 35.80930459 -14.78293308 35.33236625 -21.62890625 34.30078125 C-25.5092794 33.71606749 -28.46517852 33.62750542 -32.25 34.75 C-36.45980749 35.78519856 -38.20384257 35.52495592 -42.0625 33.6875 C-45.36931337 30.38068663 -44.35911496 26.20327192 -44.38476562 21.70507812 C-44.38154297 20.39990234 -44.37832031 19.09472656 -44.375 17.75 C-44.39111328 16.44869141 -44.40722656 15.14738281 -44.42382812 13.80664062 C-44.42447266 12.56205078 -44.42511719 11.31746094 -44.42578125 10.03515625 C-44.42876221 8.89054932 -44.43174316 7.74594238 -44.43481445 6.56665039 C-44.0625 3.6875 -44.0625 3.6875 -42.67016602 1.8112793 C-40.55877242 0.33538792 -39.2441098 0.35024369 -36.6875 0.4375 C-35.89472656 0.46199219 -35.10195312 0.48648437 -34.28515625 0.51171875 C-31.8246377 0.70631161 -29.47461861 1.17583848 -27.0625 1.6875 C-26.4025 1.3575 -25.7425 1.0275 -25.0625 0.6875 C-16.70889942 -0.35815237 -8.39640614 -0.40352414 0 0 Z " fill="#000000" transform="translate(153.0625,272.3125)"/>
<path d="M0 0 C3.45357319 2.82680151 4.95805517 5.65738165 6.5859375 9.76953125 C7.26523315 11.46384277 7.26523315 11.46384277 7.95825195 13.19238281 C8.42577881 14.38702148 8.89330566 15.58166016 9.375 16.8125 C9.86250732 18.02905273 10.35001465 19.24560547 10.85229492 20.49902344 C12.89454314 25.6058359 14.90802687 30.72144423 16.83984375 35.87109375 C19.66249588 43.49842854 19.66249588 43.49842854 24.4375 50 C27 53 27 53 27.0625 56.75 C25.58196721 61.27868852 25.58196721 61.27868852 23 63 C19.1606333 64.31688423 15.20082941 64.22035398 11.1875 64.25 C10.50107422 64.270625 9.81464844 64.29125 9.10742188 64.3125 C4.03352765 64.35090223 0.47188255 63.45066035 -4 61 C-4.33 60.01 -4.66 59.02 -5 58 C-5.66 58 -6.32 58 -7 58 C-7.309375 58.928125 -7.309375 58.928125 -7.625 59.875 C-9.58952465 62.91108356 -11.55071007 63.07775169 -15 64 C-22.24526166 64.68452165 -28.60103857 64.63577354 -35 61 C-36.56941198 59.43058802 -36.2449847 57.85865006 -36.3125 55.6875 C-36.28520916 52.25977009 -36.21261514 51.29057403 -34.125 48.4375 C-32 47 -32 47 -30 47 C-29.73880371 46.18611816 -29.47760742 45.37223633 -29.20849609 44.53369141 C-26.94453711 37.91378387 -24.26822012 31.44939428 -21.66015625 24.95898438 C-20.96930901 23.23447325 -20.28279059 21.50822174 -19.60058594 19.78027344 C-18.61080762 17.27391467 -17.60770704 14.77326388 -16.6015625 12.2734375 C-16.30037506 11.50357513 -15.99918762 10.73371277 -15.68887329 9.94052124 C-12.40915216 1.88405713 -9.09401818 -2.03831442 0 0 Z M-11 47 C-9.7260411 49.03833424 -8.38938077 51.03852126 -7 53 C-6.34 53 -5.68 53 -5 53 C-2.60179695 50.36315253 -2.60179695 50.36315253 -2 47 C-4.97 47 -7.94 47 -11 47 Z " fill="#000000" transform="translate(56,217)"/>
<path d="M0 0 C1.21734077 -0.00744736 1.21734077 -0.00744736 2.45927429 -0.01504517 C5.15148763 -0.0296828 7.84364203 -0.03647182 10.53588867 -0.04199219 C12.40435285 -0.04774279 14.272817 -0.05350054 16.14128113 -0.05926514 C20.06294022 -0.06978 23.98457879 -0.07561933 27.90625 -0.07910156 C32.93015375 -0.08458407 37.95378618 -0.10860483 42.97760487 -0.13707352 C46.83893118 -0.1557034 50.70019222 -0.16090571 54.56155968 -0.16243744 C56.41351491 -0.16546424 58.26546898 -0.17349372 60.11738014 -0.18662262 C62.70997322 -0.20368875 65.3019047 -0.20180146 67.89453125 -0.1953125 C68.65887482 -0.20452728 69.42321838 -0.21374207 70.21072388 -0.22323608 C74.70224054 -0.18804344 77.58921614 0.35719885 81.14135742 3.16113281 C83.14135742 6.16113281 83.14135742 6.16113281 83.01635742 9.09863281 C81.99984773 12.65641675 81.11877105 13.98842557 78.14135742 16.16113281 C73.64220433 17.16249605 69.30084341 17.29286016 64.70239258 17.30639648 C63.98284897 17.3097551 63.26330536 17.31311371 62.5219574 17.3165741 C60.15809371 17.3260242 57.79430129 17.32802416 55.43041992 17.32910156 C53.77664156 17.33231811 52.12286347 17.33568248 50.46908569 17.33918762 C47.00762269 17.34516392 43.5461846 17.34702905 40.0847168 17.34643555 C35.66437577 17.34633397 31.24419554 17.35998788 26.82389259 17.37720776 C23.40938594 17.38836334 19.99491775 17.39035367 16.58039474 17.38982582 C14.95142436 17.39100051 13.32245282 17.39539336 11.69350052 17.40315819 C9.40859167 17.41303094 7.12402652 17.41005172 4.83911133 17.40405273 C3.54260651 17.40547775 2.24610168 17.40690277 0.91030884 17.40837097 C-9.41984835 16.73072651 -9.41984835 16.73072651 -12.92114258 12.91113281 C-14.08483623 9.49763144 -13.90430766 7.59688952 -12.85864258 4.16113281 C-9.27584415 -0.35630868 -5.3982363 0.00783274 0 0 Z " fill="#000000" transform="translate(16.858642578125,282.8388671875)"/>
<path d="M0 0 C6.27 0 12.54 0 19 0 C22.9000576 9.66105638 26.794621 19.32473656 30.5 29.0625 C30.75475098 29.72185547 31.00950195 30.38121094 31.27197266 31.06054688 C32.33048674 33.87039366 33 35.96750757 33 39 C33.66 39 34.32 39 35 39 C35.22558594 37.81277344 35.45117188 36.62554687 35.68359375 35.40234375 C37.19801988 28.59076192 39.678516 22.10734528 42.0625 15.5625 C42.52716547 14.27165446 42.9913616 12.98063986 43.45507812 11.68945312 C46.82714286 2.34571429 46.82714286 2.34571429 48 0 C54.27 0 60.54 0 67 0 C67 0.99 67 1.98 67 3 C64.36 3.33 61.72 3.66 59 4 C59 18.85 59 33.7 59 49 C61.64 49.33 64.28 49.66 67 50 C67 50.99 67 51.98 67 53 C58.75 53 50.5 53 42 53 C42 52.01 42 51.02 42 50 C44.64 49.67 47.28 49.34 50 49 C49.67 36.13 49.34 23.26 49 10 C47.50146484 14.40472656 47.50146484 14.40472656 45.97265625 18.8984375 C45.00660755 21.73481696 44.04007092 24.57102969 43.07348633 27.40722656 C42.40077454 29.38198737 41.72857203 31.35692173 41.05688477 33.33203125 C40.09264067 36.16712237 39.12658088 39.00158906 38.16015625 41.8359375 C37.85908463 42.72243988 37.558013 43.60894226 37.24781799 44.52230835 C36.967603 45.34300812 36.687388 46.16370789 36.39868164 47.00927734 C36.15219376 47.73319672 35.90570587 48.45711609 35.65174866 49.20297241 C35 51 35 51 34 53 C32.68 53 31.36 53 30 53 C24.11085357 38.08212908 18.53820808 23.05119061 13 8 C12.97522059 12.8929813 12.95710237 17.7859258 12.94506836 22.67895508 C12.94004977 24.34237301 12.93323348 26.00578656 12.92456055 27.66918945 C12.91238643 30.06462693 12.90674686 32.46000591 12.90234375 34.85546875 C12.89718246 35.5952446 12.89202118 36.33502045 12.88670349 37.09721375 C12.88629759 40.86083154 13.09241691 44.34140381 14 48 C16.31 48.66 18.62 49.32 21 50 C21 50.99 21 51.98 21 53 C14.07 53 7.14 53 0 53 C0 52.01 0 51.02 0 50 C1.134375 49.566875 2.26875 49.13375 3.4375 48.6875 C4.613125 48.130625 5.78875 47.57375 7 47 C8.31141773 43.0657468 8.14275937 39.31137407 8.1328125 35.2109375 C8.13376923 34.35190826 8.13472595 33.49287903 8.13571167 32.6078186 C8.1363918 30.79388353 8.13454918 28.97994601 8.13037109 27.16601562 C8.12500741 24.37885121 8.13032844 21.59184699 8.13671875 18.8046875 C8.1360582 17.04427048 8.1347775 15.28385355 8.1328125 13.5234375 C8.13483673 12.68493256 8.13686096 11.84642761 8.13894653 10.98251343 C8.49468784 7.18393488 8.49468784 7.18393488 7 4 C4.67182036 3.63239269 2.3381615 3.29758419 0 3 C0 2.01 0 1.02 0 0 Z " fill="#FCFCFC" transform="translate(291,221)"/>
<path d="M0 0 C1.72094727 1.13720703 1.72094727 1.13720703 3 3 C3.31225586 6.01513672 3.31225586 6.01513672 3.21484375 9.6796875 C3.19788956 10.32946564 3.18093536 10.97924377 3.16346741 11.64871216 C3.12299557 13.02240601 3.07458033 14.39588559 3.01879883 15.76904297 C2.93806127 17.86046091 2.89418326 19.95043423 2.85351562 22.04296875 C2.80952619 23.3802837 2.76337206 24.71752956 2.71484375 26.0546875 C2.67480225 27.26624512 2.63476074 28.47780273 2.59350586 29.72607422 C1.89836374 33.56065088 0.74464282 35.27384067 -2 38 C-6.48735291 39.43213391 -8.78376624 38.77525632 -13 37 C-15.39982123 37.29997765 -17.03449227 38.01773888 -19.1875 39.125 C-23.17486395 40.36551323 -26.9796351 40.12178721 -31 39 C-32.7578125 37.671875 -32.7578125 37.671875 -34 36 C-34.43076923 29.86153846 -34.43076923 29.86153846 -33 27 C-32.90207108 24.4884113 -32.86092017 22.01090234 -32.875 19.5 C-32.87113281 18.81035156 -32.86726563 18.12070312 -32.86328125 17.41015625 C-32.80959134 13.57833786 -32.80959134 13.57833786 -34 10 C-34.27972631 6.7831474 -34.37815893 4.69621314 -32.8203125 1.828125 C-31 0 -31 0 -28.4765625 -0.4609375 C-27.06503906 -0.41839844 -27.06503906 -0.41839844 -25.625 -0.375 C-24.68914063 -0.36210937 -23.75328125 -0.34921875 -22.7890625 -0.3359375 C-20 0 -20 0 -17.35546875 1.11328125 C-14.821563 2.37902177 -14.821563 2.37902177 -11.6875 0.5625 C-11.09839844 0.27246094 -10.50929688 -0.01757812 -9.90234375 -0.31640625 C-6.36832756 -1.58632993 -3.61563413 -0.84364796 0 0 Z " fill="#000000" transform="translate(87,316)"/>
<path d="M0 0 C4.07408587 0.37037144 7.76392784 0.5294761 11.8125 -0.0625 C15.37350029 -0.57214775 17.60659266 -0.34582544 20.8125 1.5 C22.8125 3.5 22.8125 3.5 23.01123047 5.71142578 C22.92256977 8.68394815 22.81954222 11.65405003 22.6875 14.625 C22.66429687 15.6459375 22.64109375 16.666875 22.6171875 17.71875 C22.29869307 25.46214578 20.86292399 30.89495347 15.75 36.9375 C10.60327524 41.08808448 3.04309169 39.98754918 -3.1875 39.5 C-7.64117725 37.73388661 -9.28219809 35.73260022 -11.2734375 31.546875 C-13.59361656 26.14274137 -13.9910536 21.01410024 -14.1875 15.1875 C-14.25066406 14.21232422 -14.31382813 13.23714844 -14.37890625 12.23242188 C-14.67693725 5.2286934 -14.67693725 5.2286934 -12.4375 1.89453125 C-8.10528901 -0.79053702 -5.02068511 -0.52786176 0 0 Z " fill="#000000" transform="translate(21.1875,315.5)"/>
<path d="M0 0 C1.28648437 -0.01417969 2.57296875 -0.02835937 3.8984375 -0.04296875 C8.94112432 0.26889553 12.19907743 0.89356365 15.98828125 4.33203125 C18.12534328 8.06041393 17.99217438 10.60877809 17.8125 14.875 C17.40702183 19.67002711 17.40702183 19.67002711 18.625 24.1875 C19.24457854 29.10872384 19.59646521 33.67998526 16.4375 37.75 C11.77531496 41.79056036 6.71455817 41.39290517 0.75 41.4375 C0.06808594 41.458125 -0.61382812 41.47875 -1.31640625 41.5 C-6.36493807 41.538465 -10.05388605 40.90615481 -14.375 38.1875 C-15.23296084 35.51139237 -15.37676936 33.94003056 -15.375 31.1875 C-15.41447754 30.2176416 -15.45395508 29.2477832 -15.49462891 28.24853516 C-15.61782042 24.83111127 -15.6590835 21.41945265 -15.6875 18 C-15.73100586 16.2375293 -15.73100586 16.2375293 -15.77539062 14.43945312 C-15.78376953 13.31087891 -15.79214844 12.18230469 -15.80078125 11.01953125 C-15.81536377 9.99577393 -15.82994629 8.9720166 -15.8449707 7.91723633 C-15.25427564 4.48629531 -14.045929 3.34150526 -11.375 1.1875 C-7.7801879 -0.29594866 -3.83808351 0.01915211 0 0 Z " fill="#000000" transform="translate(187.375,314.8125)"/>
<path d="M0 0 C3.19985305 2.5998806 4.69883332 4.09649995 6 8 C6.1239427 11.84222355 6.22391752 15.08397376 5.3125 18.8125 C5.209375 19.534375 5.10625 20.25625 5 21 C5.474375 21.433125 5.94875 21.86625 6.4375 22.3125 C8.62751744 24.67771884 8.47248561 26.87514819 8.36328125 29.99609375 C7.79822507 33.11301653 6.22882343 34.8367302 4 37 C0.28793833 38.85603083 -4.09532862 38.52311829 -8.1875 38.75 C-9.58838867 38.85248047 -9.58838867 38.85248047 -11.01757812 38.95703125 C-16.84972949 39.27716342 -20.93610331 39.04930179 -26 36 C-27.61797753 30.23595506 -27.61797753 30.23595506 -26 27 C-25.90080191 24.2603822 -25.86110725 21.55168757 -25.875 18.8125 C-25.87113281 18.06935547 -25.86726562 17.32621094 -25.86328125 16.56054688 C-25.86959021 12.9612842 -26.05182389 9.67024164 -26.61328125 6.09765625 C-27 3 -27 3 -25.3125 0.625 C-18.59309326 -4.09674527 -7.348799 -2.84095583 0 0 Z " fill="#000000" transform="translate(240,317)"/>
<path d="M0 0 C1.89328003 0.29309082 1.89328003 0.29309082 4 1 C5.33501593 3.58833515 6.38108445 6.00283356 7.3828125 8.71875 C7.68315399 9.49182495 7.98349548 10.2648999 8.29293823 11.06140137 C9.25180347 13.53551776 10.18948398 16.01697056 11.125 18.5 C12.07058411 20.98173852 13.02056349 23.46159551 13.97848511 25.93859863 C14.57404538 27.48139176 15.1619245 29.0271755 15.7414856 30.5760498 C16.99229292 34.50262238 16.99229292 34.50262238 20 37 C22.64 37 25.28 37 28 37 C28 26.11 28 15.22 28 4 C26.02 3.67 24.04 3.34 22 3 C22 2.34 22 1.68 22 1 C27.94 1 33.88 1 40 1 C40 1.66 40 2.32 40 3 C38.02 3.33 36.04 3.66 34 4 C34 8.95 34 13.9 34 19 C39.61 19 45.22 19 51 19 C50.505 11.575 50.505 11.575 50 4 C48.68 3.67 47.36 3.34 46 3 C46 2.34 46 1.68 46 1 C51.61 1 57.22 1 63 1 C63 1.66 63 2.32 63 3 C61.68 3.33 60.36 3.66 59 4 C59 14.89 59 25.78 59 37 C60.98 37.495 60.98 37.495 63 38 C63 38.66 63 39.32 63 40 C57.39 40 51.78 40 46 40 C46 39.34 46 38.68 46 38 C47.32 37.67 48.64 37.34 50 37 C50.33 31.72 50.66 26.44 51 21 C45.39 21 39.78 21 34 21 C34 26.28 34 31.56 34 37 C36.97 37.495 36.97 37.495 40 38 C40 38.66 40 39.32 40 40 C28.78 40 17.56 40 6 40 C6 39.34 6 38.68 6 38 C8.475 37.505 8.475 37.505 11 37 C10.505 35.906875 10.01 34.81375 9.5 33.6875 C8 30 8 30 8 27 C3.05 27.33 -1.9 27.66 -7 28 C-7.66 30.97 -8.32 33.94 -9 37 C-7.35 37.33 -5.7 37.66 -4 38 C-4 38.66 -4 39.32 -4 40 C-8.95 40 -13.9 40 -19 40 C-19 39.34 -19 38.68 -19 38 C-17.87235229 37.44155396 -17.87235229 37.44155396 -16.72192383 36.87182617 C-12.91138277 34.25137426 -12.03252276 31.28587995 -10.44921875 27.05078125 C-10.14554886 26.27816452 -9.84187897 25.50554779 -9.52900696 24.70951843 C-8.56624055 22.2495852 -7.62669279 19.78151693 -6.6875 17.3125 C-6.03732076 15.63938503 -5.3856445 13.96685099 -4.73242188 12.29492188 C-3.13752269 8.2031432 -1.56338238 4.10391832 0 0 Z " fill="#FCFCFC" transform="translate(153,220)"/>
<path d="M0 0 C1.31613281 -0.02578125 2.63226563 -0.0515625 3.98828125 -0.078125 C7.85341501 0.26471685 9.65928741 0.88920767 12.6875 3.25 C15.61886672 7.64705008 15.2687666 11.87818024 15.5 17.0625 C15.56380859 18.04798828 15.62761719 19.03347656 15.69335938 20.04882812 C15.95753601 25.58909577 15.93467026 29.50063415 12.6875 34.25 C7.66668312 38.78098108 4.48143283 39.43161716 -2.125 39.4375 C-3.19331055 39.45586914 -3.19331055 39.45586914 -4.28320312 39.47460938 C-8.37830422 39.48597413 -11.73982009 39.34341873 -15.3125 37.25 C-18.13919722 32.72728446 -17.6427878 28.10663509 -17.625 22.9375 C-17.64111328 22.01259766 -17.65722656 21.08769531 -17.67382812 20.13476562 C-17.67791019 14.3913038 -17.09569927 10.30614534 -14.3125 5.25 C-9.53377583 0.82093858 -6.34985335 0.04842596 0 0 Z " fill="#000000" transform="translate(271.3125,315.75)"/>
<path d="M0 0 C0.7528125 0.05542969 1.505625 0.11085938 2.28125 0.16796875 C5.4318002 1.08318139 6.6056902 2.12036152 8.5 4.8125 C8.7906124 7.70699949 8.88186045 10.19199935 8.75 13.0625 C8.73195313 13.80757813 8.71390625 14.55265625 8.6953125 15.3203125 C8.64835649 17.15159701 8.57661652 18.98221649 8.5 20.8125 C9.49 20.1525 10.48 19.4925 11.5 18.8125 C15.57490752 18.47292437 17.03001271 18.49917514 20.5 20.8125 C22.93349307 24.56182319 22.58750274 27.34998106 21.96875 31.625 C21.32989254 34.60633481 20.52110699 36.51261963 18.5 38.8125 C13.63515338 40.8995339 9.25990772 41.14797705 4.0625 41.125 C2.97485352 41.14916992 2.97485352 41.14916992 1.86523438 41.17382812 C-3.28752266 41.17845774 -6.98184955 40.354324 -11.5 37.8125 C-13.11797753 32.04845506 -13.11797753 32.04845506 -11.5 28.8125 C-11.40080191 26.0728822 -11.36110725 23.36418757 -11.375 20.625 C-11.37113281 19.88185547 -11.36726563 19.13871094 -11.36328125 18.37304688 C-11.36959021 14.7737842 -11.55182389 11.48274164 -12.11328125 7.91015625 C-12.5 4.8125 -12.5 4.8125 -10.8125 2.4375 C-7.24890182 -0.06665007 -4.28770344 -0.38912377 0 0 Z " fill="#000000" transform="translate(348.5,315.1875)"/>
<path d="M0 0 C3.10140645 4.23586828 4.73212014 9.18542334 6.5625 14.0625 C7.16618506 15.65822802 7.77159698 17.25330403 8.37890625 18.84765625 C8.77444702 19.8996521 8.77444702 19.8996521 9.17797852 20.97290039 C9.97766952 23.03783911 9.97766952 23.03783911 11.08178711 25.07202148 C12.40594854 27.8523732 12.31652663 29.96134435 12 33 C11.0625 35.3125 11.0625 35.3125 9 37 C3.66055349 38.4150086 -1.47313702 37.94400157 -6.87109375 37.18359375 C-9.26733154 36.89288001 -9.26733154 36.89288001 -12.6875 37.5625 C-16.45274515 38.05979653 -18.55321532 37.52299788 -22 36 C-24 34 -24 34 -24.4453125 30.67578125 C-24.27735002 24.37434159 -21.408798 18.84916005 -18.875 13.1875 C-18.400625 12.05634766 -17.92625 10.92519531 -17.4375 9.75976562 C-16.96054687 8.67759766 -16.48359375 7.59542969 -15.9921875 6.48046875 C-15.56276855 5.49973389 -15.13334961 4.51899902 -14.69091797 3.50854492 C-10.79778445 -2.26707547 -6.06385622 -2.74589716 0 0 Z " fill="#000000" transform="translate(317,318)"/>
<path d="M0 0 C3.79402778 0.34375419 6.83503176 0.47892403 10.625 -0.0625 C14.25664706 -0.58130672 16.3576662 0.02867809 19.6875 1.5 C21.6875 3.5 21.6875 3.5 22.05078125 6.9921875 C21.91255471 12.31691436 19.94667683 16.78504048 17.875 21.625 C17.51857422 22.49253906 17.16214844 23.36007812 16.79492188 24.25390625 C11.51401543 36.98622014 11.51401543 36.98622014 8.375 38.9375 C5.05658992 39.63205095 2.93969893 39.46874011 -0.3125 38.5 C-5.01668171 35.00764604 -6.45065577 29.78817857 -8.4375 24.5 C-9.12621699 22.70779965 -9.81627322 20.91611324 -10.5078125 19.125 C-10.80703613 18.33351563 -11.10625977 17.54203125 -11.41455078 16.7265625 C-12.27591476 14.4893593 -12.27591476 14.4893593 -13.40185547 12.3984375 C-14.74373503 9.60099636 -14.69463341 7.55706727 -14.3125 4.5 C-10.24703376 -0.87222324 -6.32530839 -0.65408594 0 0 Z " fill="#000000" transform="translate(141.3125,315.5)"/>
<path d="M0 0 C1.93084717 0.17420959 1.93084717 0.17420959 4 1 C5.16436768 2.81517029 5.16436768 2.81517029 6.10644531 5.21264648 C6.46651672 6.10704941 6.82658813 7.00145233 7.1975708 7.92295837 C7.57065369 8.89584305 7.94373657 9.86872772 8.328125 10.87109375 C8.72199402 11.86375748 9.11586304 12.8564212 9.52166748 13.87916565 C10.7790267 17.05975342 12.01420932 20.24847882 13.25 23.4375 C14.09761277 25.58451607 14.94655466 27.73100794 15.796875 29.87695312 C16.6001335 31.91620416 17.40225561 33.95590326 18.203125 35.99609375 C18.77489471 37.45238441 18.77489471 37.45238441 19.35821533 38.93809509 C19.7056781 39.83565018 20.05314087 40.73320526 20.41113281 41.65795898 C20.71883606 42.44992172 21.02653931 43.24188446 21.34356689 44.05784607 C22 46 22 46 22 48 C23.65 48.33 25.3 48.66 27 49 C27 49.99 27 50.98 27 52 C20.07 52 13.14 52 6 52 C6 51.01 6 50.02 6 49 C8.31 48.67 10.62 48.34 13 48 C12.71125 47.22914063 12.4225 46.45828125 12.125 45.6640625 C11.75375 44.66117187 11.3825 43.65828125 11 42.625 C10.62875 41.62726563 10.2575 40.62953125 9.875 39.6015625 C9 37 9 37 9 35 C2.73 35.33 -3.54 35.66 -10 36 C-10.99 38.97 -11.98 41.94 -13 45 C-12.10664203 47.35785318 -12.10664203 47.35785318 -8.9375 48.125 C-7.968125 48.41375 -6.99875 48.7025 -6 49 C-6 49.99 -6 50.98 -6 52 C-12.27 52 -18.54 52 -25 52 C-25 51.01 -25 50.02 -25 49 C-24.24976562 48.82210937 -23.49953125 48.64421875 -22.7265625 48.4609375 C-18.89712843 46.40906308 -17.93658931 43.47997475 -16.375 39.625 C-16.04943115 38.86002197 -15.7238623 38.09504395 -15.38842773 37.30688477 C-11.61371011 28.32415601 -8.09915196 19.22422764 -4.59326172 10.13330078 C-4.14096191 8.96395996 -3.68866211 7.79461914 -3.22265625 6.58984375 C-2.81797119 5.53659912 -2.41328613 4.48335449 -1.99633789 3.39819336 C-1 1 -1 1 0 0 Z " fill="#FCFCFC" transform="translate(50,219)"/>
<path d="M0 0 C1.70558327 2.66960859 1.85802585 4.13810871 1.4375 7.25 C1.1075 7.58 0.7775 7.91 0.4375 8.25 C0.33889869 9.65348735 0.30671063 11.06180477 0.3046875 12.46875 C0.30339844 13.31824219 0.30210938 14.16773438 0.30078125 15.04296875 C0.30658203 16.38294922 0.30658203 16.38294922 0.3125 17.75 C0.30863281 18.64332031 0.30476563 19.53664063 0.30078125 20.45703125 C0.30271484 21.73126953 0.30271484 21.73126953 0.3046875 23.03125 C0.30581543 23.81564453 0.30694336 24.60003906 0.30810547 25.40820312 C0.23642558 27.26752988 0.23642558 27.26752988 1.4375 28.25 C1.85802585 31.36189129 1.70558327 32.83039141 0 35.5 C-4.22977208 38.38862484 -8.66032525 38.76151503 -13.66796875 37.87890625 C-15.5625 37.25 -15.5625 37.25 -18.5625 35.25 C-20.1268231 28.69082067 -19.81925228 21.7708086 -19.875 15.0625 C-19.91850586 13.3000293 -19.91850586 13.3000293 -19.96289062 11.50195312 C-19.97126953 10.37337891 -19.97964844 9.24480469 -19.98828125 8.08203125 C-20.00286377 7.05827393 -20.01744629 6.0345166 -20.0324707 4.97973633 C-19.44120325 1.54547065 -18.2416903 0.40096517 -15.5625 -1.75 C-10.50586674 -3.70643549 -4.42216393 -3.02001439 0 0 Z " fill="#000000" transform="translate(118.5625,317.75)"/>
<path d="M0 0 C3.85691937 -0.71371031 7.15508644 -0.85609403 11 0 C14.20580274 2.61554514 16.40637142 5.75531977 18.72558594 9.16259766 C20.69754907 12.00570006 22.80757828 14.74157403 24.90063477 17.49609375 C27.29018461 20.64705591 29.64453206 23.82350601 32 27 C32.11601004 23.39610336 32.18718408 19.79268533 32.25 16.1875 C32.28351563 15.16333984 32.31703125 14.13917969 32.3515625 13.08398438 C32.36445312 12.10107422 32.37734375 11.11816406 32.390625 10.10546875 C32.41157227 9.19949951 32.43251953 8.29353027 32.45410156 7.36010742 C32.22406843 4.82503823 32.22406843 4.82503823 29.97558594 3.3059082 C29.32364258 2.8749585 28.67169922 2.44400879 28 2 C28 1.34 28 0.68 28 0 C32.62 0 37.24 0 42 0 C42 0.66 42 1.32 42 2 C41.0409375 2.4021875 41.0409375 2.4021875 40.0625 2.8125 C37.66868314 3.88667752 37.66868314 3.88667752 37 7 C36.84730819 9.43780377 36.74317303 11.85283901 36.68359375 14.29296875 C36.66281265 14.99899734 36.64203156 15.70502594 36.62062073 16.43244934 C36.55532509 18.68403551 36.49633353 20.93573662 36.4375 23.1875 C36.39429575 24.7155066 36.35068084 26.24350164 36.30664062 27.77148438 C36.19966426 31.51420562 36.09834078 35.2570423 36 39 C32 39 32 39 30.5871582 37.72167969 C29.95040161 36.83077637 29.95040161 36.83077637 29.30078125 35.921875 C28.81770508 35.26058594 28.33462891 34.59929687 27.83691406 33.91796875 C27.33385742 33.20253906 26.83080078 32.48710937 26.3125 31.75 C25.25143034 30.28636535 24.19023103 28.82282467 23.12890625 27.359375 C22.60441895 26.62654297 22.07993164 25.89371094 21.53955078 25.13867188 C19.32181204 22.05789304 17.03823202 19.02855611 14.75 16 C12.875 13.5 12.875 13.5 11 11 C10.85503492 14.77043032 10.76604393 18.54014742 10.6875 22.3125 C10.64560547 23.38435547 10.60371094 24.45621094 10.56054688 25.56054688 C10.54443359 26.58857422 10.52832031 27.61660156 10.51171875 28.67578125 C10.48553467 29.62364502 10.45935059 30.57150879 10.43237305 31.5480957 C10.76706794 34.26105664 10.76706794 34.26105664 13.53051758 35.70776367 C14.34544678 36.13420166 15.16037598 36.56063965 16 37 C16 37.66 16 38.32 16 39 C10.72 39 5.44 39 0 39 C0 38.34 0 37.68 0 37 C0.8149292 36.60514404 1.6298584 36.21028809 2.46948242 35.8034668 C5.33356467 34.20508175 5.33356467 34.20508175 5.56762695 30.90551758 C5.54144287 29.66439209 5.51525879 28.4232666 5.48828125 27.14453125 C5.48120651 26.48289474 5.47413177 25.82125824 5.46684265 25.13957214 C5.43888507 23.02939015 5.37615847 20.9218774 5.3125 18.8125 C5.28741824 17.38089775 5.26460483 15.94925383 5.24414062 14.51757812 C5.18905847 11.0108535 5.10278289 7.50568729 5 4 C2.525 3.01 2.525 3.01 0 2 C0 1.34 0 0.68 0 0 Z " fill="#FBFBFB" transform="translate(94,221)"/>
<path d="M0 0 C10.56 0 21.12 0 32 0 C32.495 6.435 32.495 6.435 33 13 C32.01 13 31.02 13 30 13 C29.82984375 12.36191406 29.6596875 11.72382813 29.484375 11.06640625 C29.24203125 10.24011719 28.9996875 9.41382813 28.75 8.5625 C28.51796875 7.73878906 28.2859375 6.91507813 28.046875 6.06640625 C27.20706053 3.86589111 27.20706053 3.86589111 25.21875 3.21875 C22.71109411 2.97151632 20.27001958 2.90434185 17.75 2.9375 C15.39875 2.9684375 15.39875 2.9684375 13 3 C12.67 7.95 12.34 12.9 12 18 C17.2213392 16.37580496 17.2213392 16.37580496 20.4375 12.3125 C20.623125 11.549375 20.80875 10.78625 21 10 C21.99 10 22.98 10 24 10 C24 15.94 24 21.88 24 28 C23.01 28 22.02 28 21 28 C20.62875 27.05125 20.2575 26.1025 19.875 25.125 C18.03389538 21.28819694 18.03389538 21.28819694 12 20 C12 25.28 12 30.56 12 36 C20.35540594 36.56224375 20.35540594 36.56224375 28 34 C29.41571503 30.74870009 30.27136191 27.46422669 31 24 C31.99 24 32.98 24 34 24 C34.02749766 25.37488287 34.0466164 26.74993391 34.0625 28.125 C34.07410156 28.89070313 34.08570313 29.65640625 34.09765625 30.4453125 C34 33 34 33 33 39 C22.11 39 11.22 39 0 39 C0 38.34 0 37.68 0 37 C2.97 36.505 2.97 36.505 6 36 C5.67 25.11 5.34 14.22 5 3 C3.35 2.67 1.7 2.34 0 2 C0 1.34 0 0.68 0 0 Z " fill="#FDFDFD" transform="translate(220,221)"/>
<path d="M0 0 C3.08301416 -0.11644156 6.16546123 -0.18732432 9.25 -0.25 C10.12269531 -0.28351563 10.99539062 -0.31703125 11.89453125 -0.3515625 C18.36262055 -0.45031195 18.36262055 -0.45031195 21.58203125 1.82421875 C23.49492888 4.75943633 23.51175389 6.56393817 23 10 C21.625 11.875 21.625 11.875 20 13 C19.34 13 18.68 13 18 13 C18.474375 13.9075 18.94875 14.815 19.4375 15.75 C21 19 21 19 21.5625 21.3125 C21.706875 21.869375 21.85125 22.42625 22 23 C22.66 23.33 23.32 23.66 24 24 C24 23.01 24 22.02 24 21 C24.66 21 25.32 21 26 21 C25.125 25.875 25.125 25.875 24 27 C22.00041636 27.04080783 19.99954746 27.04254356 18 27 C16.5471568 24.40563714 15.84838218 22.32355128 15.1875 19.375 C14.795625 18.26125 14.40375 17.1475 14 16 C11.49195474 14.7547556 11.49195474 14.7547556 9 14 C9.08693141 15.79258558 9.19510504 17.58415144 9.3125 19.375 C9.39951172 20.87160156 9.39951172 20.87160156 9.48828125 22.3984375 C9.65714844 23.25695312 9.82601562 24.11546875 10 25 C10.99 25.66 11.98 26.32 13 27 C8.71 27 4.42 27 0 27 C1.32 26.67 2.64 26.34 4 26 C4 17.75 4 9.5 4 1 C2.68 0.67 1.36 0.34 0 0 Z " fill="#FCFCFC" transform="translate(217,319)"/>
<path d="M0 0 C2.79192205 -0.05380578 5.5828141 -0.09357669 8.375 -0.125 C9.1690625 -0.14175781 9.963125 -0.15851563 10.78125 -0.17578125 C12.85492015 -0.19335473 14.92883241 -0.10335168 17 0 C19 2 19 2 19.25 5 C19 8 19 8 17 10 C17.680625 10.53625 18.36125 11.0725 19.0625 11.625 C21 14 21 14 20.9375 17.125 C20 20 20 20 17 22 C15.09887695 22.22705078 15.09887695 22.22705078 12.98828125 22.1953125 C12.23095703 22.18886719 11.47363281 22.18242187 10.69335938 22.17578125 C9.90767578 22.15902344 9.12199219 22.14226562 8.3125 22.125 C7.51521484 22.11597656 6.71792969 22.10695313 5.89648438 22.09765625 C3.930861 22.07411585 1.96539225 22.03824547 0 22 C0.99 21.67 1.98 21.34 3 21 C3 14.4 3 7.8 3 1 C2.01 0.67 1.02 0.34 0 0 Z " fill="#FAFAFA" transform="translate(184,276)"/>
<path d="M0 0 C28.05 0 56.1 0 85 0 C85 1.32 85 2.64 85 4 C56.95 4 28.9 4 0 4 C0 2.68 0 1.36 0 0 Z " fill="#FAFAFA" transform="translate(9,286)"/>
<path d="M0 0 C3.14634713 -0.50118804 4.96978521 -0.75624078 8 0 C11.0425209 2.60271094 13.21349936 5.73216861 15.5 9 C16.13164063 9.85851562 16.76328125 10.71703125 17.4140625 11.6015625 C18.96583132 13.71761089 20.48608572 15.85670562 22 18 C22 12.72 22 7.44 22 2 C21.01 1.67 20.02 1.34 19 1 C19 0.67 19 0.34 19 0 C22.3 0 25.6 0 29 0 C28.01 0.99 27.02 1.98 26 3 C25.49520343 5.6068023 25.49520343 5.6068023 25.48828125 8.54296875 C25.45283203 9.61611328 25.41738281 10.68925781 25.38085938 11.79492188 C25.35830078 12.91447266 25.33574219 14.03402344 25.3125 15.1875 C25.27833984 16.31865234 25.24417969 17.44980469 25.20898438 18.61523438 C25.12643686 21.4100574 25.05730818 24.20456398 25 27 C20.33023241 26.17774035 18.59561531 23.35785112 15.9375 19.6875 C15.50373047 19.10548828 15.06996094 18.52347656 14.62304688 17.92382812 C13.40664746 16.28900213 12.20294029 14.64475476 11 13 C10.00172572 11.66537412 9.0026279 10.33135836 8 9 C7.9190277 11.43816585 7.85953028 13.87364384 7.8125 16.3125 C7.78736328 17.00279297 7.76222656 17.69308594 7.73632812 18.40429688 C7.67084334 20.68759622 7.67084334 20.68759622 8 24 C8.99 24.99 9.98 25.98 11 27 C7.37 27 3.74 27 0 27 C0.99 26.01 1.98 25.02 3 24 C3.46016349 21.73463618 3.46016349 21.73463618 3.3984375 19.21875 C3.40230469 18.29449219 3.40617187 17.37023437 3.41015625 16.41796875 C3.39855469 15.45503906 3.38695312 14.49210937 3.375 13.5 C3.38660156 12.53707031 3.39820313 11.57414062 3.41015625 10.58203125 C3.40628906 9.65777344 3.40242188 8.73351562 3.3984375 7.78125 C3.39505371 6.93626953 3.39166992 6.09128906 3.38818359 5.22070312 C2.92337957 2.56167334 2.05997113 1.67743429 0 0 Z " fill="#FBFBFB" transform="translate(57,319)"/>
<path d="M0 0 C2.97 0 5.94 0 9 0 C10.98 4.62 12.96 9.24 15 14 C16.65 9.38 18.3 4.76 20 0 C22.97 0 25.94 0 29 0 C28.01 0.33 27.02 0.66 26 1 C26 7.6 26 14.2 26 21 C26.99 21.33 27.98 21.66 29 22 C25.37 22 21.74 22 18 22 C18.99 21.34 19.98 20.68 21 20 C21.36530232 16.87442041 21.36530232 16.87442041 21.1875 13.375 C21.125625 11.27125 21.06375 9.1675 21 7 C19.35 11.62 17.7 16.24 16 21 C14.68 21 13.36 21 12 21 C10.35 16.71 8.7 12.42 7 8 C6.938125 9.753125 6.87625 11.50625 6.8125 13.3125 C6.77769531 14.29863281 6.74289063 15.28476562 6.70703125 16.30078125 C6.75632586 19.38300393 6.75632586 19.38300393 10 22 C6.7 22 3.4 22 0 22 C0.99 21.01 1.98 20.02 3 19 C3.29750972 16.05698714 3.41886918 13.37429772 3.375 10.4375 C3.39240234 9.26670898 3.39240234 9.26670898 3.41015625 8.07226562 C3.43438896 5.5456085 3.43438896 5.5456085 3 2 C2.01 1.34 1.02 0.68 0 0 Z " fill="#FBFBFB" transform="translate(152,276)"/>
<path d="M0 0 C7.26 0 14.52 0 22 0 C23.4783226 2.95664519 23.06032783 5.74229737 23 9 C22.01 8.67 21.02 8.34 20 8 C19.79375 7.195625 19.5875 6.39125 19.375 5.5625 C18.27724965 2.83366539 18.27724965 2.83366539 15.875 2.2265625 C13.59944634 1.73589624 11.29963236 1.3613708 9 1 C9 4.96 9 8.92 9 13 C13.08785794 11.53489979 13.08785794 11.53489979 13.75 8.875 C13.8325 8.25625 13.915 7.6375 14 7 C14.99 7 15.98 7 17 7 C17 11.29 17 15.58 17 20 C16.01 20 15.02 20 14 20 C13.9175 19.38125 13.835 18.7625 13.75 18.125 C13.08785794 15.46510021 13.08785794 15.46510021 9 14 C9 17.96 9 21.92 9 26 C13.63270549 25.41314877 13.63270549 25.41314877 18 24 C19.73456566 21.68189219 20.20969869 19.8450847 21 17 C21.99 17 22.98 17 24 17 C23.67 20.3 23.34 23.6 23 27 C15.41 27 7.82 27 0 27 C0.99 26.34 1.98 25.68 3 25 C3.46559958 22.6148508 3.46559958 22.6148508 3.3984375 19.84375 C3.40230469 18.82152344 3.40617188 17.79929687 3.41015625 16.74609375 C3.39855469 15.67488281 3.38695312 14.60367187 3.375 13.5 C3.38660156 12.42878906 3.39820313 11.35757812 3.41015625 10.25390625 C3.40628906 9.23167969 3.40242187 8.20945312 3.3984375 7.15625 C3.39505371 6.21587891 3.39166992 5.27550781 3.38818359 4.30664062 C3.26008301 3.54544922 3.13198242 2.78425781 3 2 C2.01 1.34 1.02 0.68 0 0 Z " fill="#FBFBFB" transform="translate(176,319)"/>
<path d="M0 0 C5.94 0 11.88 0 18 0 C18 0.66 18 1.32 18 2 C16.02 2.33 14.04 2.66 12 3 C12 13.89 12 24.78 12 36 C13.98 36.33 15.96 36.66 18 37 C18 37.66 18 38.32 18 39 C12.06 39 6.12 39 0 39 C0 38.34 0 37.68 0 37 C2.475 36.505 2.475 36.505 5 36 C5.33 25.11 5.66 14.22 6 3 C3.03 2.505 3.03 2.505 0 2 C0 1.34 0 0.68 0 0 Z " fill="#FEFEFE" transform="translate(257,221)"/>
<path d="M0 0 C0.99 0 1.98 0 3 0 C3.25692627 0.7113208 3.51385254 1.4226416 3.77856445 2.15551758 C4.94790665 5.3777225 6.13003296 8.59508968 7.3125 11.8125 C7.91868164 13.49182617 7.91868164 13.49182617 8.53710938 15.20507812 C8.93349609 16.27822266 9.32988281 17.35136719 9.73828125 18.45703125 C10.09962158 19.44678955 10.46096191 20.43654785 10.83325195 21.45629883 C11.96499536 24.31291238 11.96499536 24.31291238 15 27 C11.04 27 7.08 27 3 27 C3.99 26.34 4.98 25.68 6 25 C5.67 22.69 5.34 20.38 5 18 C1.7 18 -1.6 18 -5 18 C-5.76716851 20.85078091 -5.76716851 20.85078091 -6 24 C-5.01 24.99 -4.02 25.98 -3 27 C-6.3 27 -9.6 27 -13 27 C-12.67 26.34 -12.34 25.68 -12 25 C-11.34 25 -10.68 25 -10 25 C-9.62875 23.824375 -9.2575 22.64875 -8.875 21.4375 C-7.36302455 16.89430454 -5.6461045 12.44681677 -3.875 8 C-3.60929199 7.3289624 -3.34358398 6.6579248 -3.06982422 5.96655273 C-1.12376909 1.12376909 -1.12376909 1.12376909 0 0 Z " fill="#FBFBFB" transform="translate(310,319)"/>
<path d="M0 0 C28.38 0 56.76 0 86 0 C86 0.99 86 1.98 86 3 C57.62 3 29.24 3 0 3 C0 2.01 0 1.02 0 0 Z " fill="#FEFEFE" transform="translate(283,288)"/>
<path d="M0 0 C0.99 0.33 1.98 0.66 3 1 C3.99 0.67 4.98 0.34 6 0 C6 3.3 6 6.6 6 10 C5.01 9.67 4.02 9.34 3 9 C2.731875 8.195625 2.46375 7.39125 2.1875 6.5625 C1.19362562 3.7123634 1.19362562 3.7123634 -1.9375 2.5625 C-5.15924167 1.60357754 -5.15924167 1.60357754 -8 4 C-8.25030977 6.58380177 -8.25030977 6.58380177 -8 9 C-7.16855469 9.18175781 -6.33710938 9.36351562 -5.48046875 9.55078125 C-4.39378906 9.80214844 -3.30710937 10.05351562 -2.1875 10.3125 C-0.56908203 10.67794922 -0.56908203 10.67794922 1.08203125 11.05078125 C3.98737 11.99589145 5.27446847 12.51807109 7 15 C7.47993784 19.31944059 7.72659573 21.73635524 5.5625 25.5 C1.79396714 27.70597045 -1.73047036 27.47963408 -6 27 C-6.99 26.67 -7.98 26.34 -9 26 C-10.32 26.33 -11.64 26.66 -13 27 C-13 23.7 -13 20.4 -13 17 C-12.01 17 -11.02 17 -10 17 C-9.62875 17.94875 -9.2575 18.8975 -8.875 19.875 C-7.25811697 23.19515335 -7.25811697 23.19515335 -4.0625 24.5 C-0.78496693 25.03510744 0.3198425 24.85549365 3 23 C3 21.35 3 19.7 3 18 C1.75283203 17.61908203 1.75283203 17.61908203 0.48046875 17.23046875 C-0.60621094 16.88628906 -1.69289063 16.54210937 -2.8125 16.1875 C-4.43091797 15.68283203 -4.43091797 15.68283203 -6.08203125 15.16796875 C-8.85251297 14.0590343 -10.27139986 13.39162485 -12 11 C-12.49125459 7.14014247 -12.56021138 4.91034349 -10.5 1.5625 C-6.80761015 -0.74524365 -4.32676915 -0.34339438 0 0 Z " fill="#FCFCFC" transform="translate(273,319)"/>
<path d="M0 0 C4.29 0 8.58 0 13 0 C11.68 0.33 10.36 0.66 9 1 C9.13850705 4.45866792 9.28704727 7.91683275 9.4375 11.375 C9.47681641 12.35984375 9.51613281 13.3446875 9.55664062 14.359375 C9.61948242 15.77089844 9.61948242 15.77089844 9.68359375 17.2109375 C9.72025146 18.08024902 9.75690918 18.94956055 9.79467773 19.84521484 C9.87401544 22.0483262 9.87401544 22.0483262 11 24 C14.94288658 24.96381672 16.98750587 25.00312353 21 24 C21.33 16.74 21.66 9.48 22 2 C20.68 1.34 19.36 0.68 18 0 C21.63 0 25.26 0 29 0 C28.01 0.99 27.02 1.98 26 3 C25.5788761 5.03830979 25.5788761 5.03830979 25.6640625 7.2734375 C25.64472656 8.5109375 25.64472656 8.5109375 25.625 9.7734375 C25.625 11.50001768 25.63274197 13.22661617 25.6484375 14.953125 C25.5667404 19.32392005 25.41694357 21.4183563 22.8046875 25.0625 C19.71417403 27.19745081 18.21619017 27.67719368 14.5 27.625 C13.12328125 27.64433594 13.12328125 27.64433594 11.71875 27.6640625 C7.74155501 26.69262119 6.36810284 25.34146895 4 22 C3.34128432 18.60031977 3.3454091 15.26723709 3.375 11.8125 C3.375 10.00646348 3.36259196 8.20037107 3.3359375 6.39453125 C3.34439697 5.20114136 3.34439697 5.20114136 3.35302734 3.98364258 C3.23652832 3.32904053 3.1200293 2.67443848 3 2 C2.01 1.34 1.02 0.68 0 0 Z " fill="#FBFBFB" transform="translate(11,319)"/>
<path d="M0 0 C3.96 0 7.92 0 12 0 C11.01 0.33 10.02 0.66 9 1 C10.98 6.61 12.96 12.22 15 18 C17.04650391 14.93024413 17.99704565 12.30915848 19.125 8.8125 C19.47820312 7.72582031 19.83140625 6.63914062 20.1953125 5.51953125 C20.46085937 4.68808594 20.72640625 3.85664063 21 3 C20.01 2.01 19.02 1.02 18 0 C21.3 0 24.6 0 28 0 C27.4121875 0.95132812 26.824375 1.90265625 26.21875 2.8828125 C23.22548255 8.11312578 21.50482036 13.7917156 19.64453125 19.5 C19.35964844 20.32242187 19.07476562 21.14484375 18.78125 21.9921875 C18.53439453 22.73839355 18.28753906 23.48459961 18.03320312 24.25341797 C17 26 17 26 14.88867188 26.75048828 C14.26541016 26.83282715 13.64214844 26.91516602 13 27 C11.49144661 23.3993541 9.99464176 19.79394041 8.5 16.1875 C8.07074219 15.16333984 7.64148438 14.13917969 7.19921875 13.08398438 C6.79316406 12.10107422 6.38710937 11.11816406 5.96875 10.10546875 C5.59169922 9.19949951 5.21464844 8.29353027 4.82617188 7.36010742 C4 5 4 5 4 2 C2.68 1.34 1.36 0.68 0 0 Z " fill="#FBFBFB" transform="translate(131,319)"/>
<path d="M0 0 C3.12890625 -0.4375 3.12890625 -0.4375 7 0 C9.44581354 1.99524941 11.1392976 4.4233227 12.9375 7 C13.67709961 8.00160156 13.67709961 8.00160156 14.43164062 9.0234375 C15.64129065 10.66762201 16.82344514 12.33197286 18 14 C18.05410687 12.22950311 18.09284119 10.45853151 18.125 8.6875 C18.14820313 7.70136719 18.17140625 6.71523438 18.1953125 5.69921875 C18.20682639 2.77593473 18.20682639 2.77593473 16 0 C18.64 0 21.28 0 24 0 C23.01 1.485 23.01 1.485 22 3 C21.63566627 5.12337771 21.63566627 5.12337771 21.5859375 7.44921875 C21.54726562 8.29677734 21.50859375 9.14433594 21.46875 10.01757812 C21.42234375 11.33918945 21.42234375 11.33918945 21.375 12.6875 C21.33632812 13.58017578 21.29765625 14.47285156 21.2578125 15.39257812 C21.16359782 17.5948462 21.07798412 19.79710722 21 22 C17.61619564 21.43920096 16.26170038 20.56010407 14.203125 17.83984375 C13.71972656 17.21142578 13.23632812 16.58300781 12.73828125 15.93554688 C12.24714844 15.27619141 11.75601563 14.61683594 11.25 13.9375 C10.74339844 13.27427734 10.23679687 12.61105469 9.71484375 11.92773438 C8.46748114 10.2920419 7.23252182 8.64690416 6 7 C6 11.29 6 15.58 6 20 C6.99 20.33 7.98 20.66 9 21 C9 21.33 9 21.66 9 22 C6.03 22 3.06 22 0 22 C0.33 21.34 0.66 20.68 1 20 C1.66 20 2.32 20 3 20 C2.88641524 17.04081802 2.75966914 14.08323217 2.625 11.125 C2.57859375 9.86236328 2.57859375 9.86236328 2.53125 8.57421875 C2.49257812 7.76855469 2.45390625 6.96289062 2.4140625 6.1328125 C2.3826416 5.38918457 2.3512207 4.64555664 2.31884766 3.87939453 C2.14580449 1.75989026 2.14580449 1.75989026 0 0 Z " fill="#FBFBFB" transform="translate(113,276)"/>
<path d="M0 0 C1.08667969 0.02707031 2.17335937 0.05414063 3.29296875 0.08203125 C4.54013672 0.13423828 4.54013672 0.13423828 5.8125 0.1875 C5.8125 2.8275 5.8125 5.4675 5.8125 8.1875 C5.1525 8.1875 4.4925 8.1875 3.8125 8.1875 C3.35875 7.383125 2.905 6.57875 2.4375 5.75 C1.07808077 3.06966428 1.07808077 3.06966428 -1.25 2.3125 C-3.26997889 2.01879318 -3.26997889 2.01879318 -5.1875 3.1875 C-5.83963292 5.21213255 -5.83963292 5.21213255 -6.1875 7.1875 C-5.58421875 7.29707031 -4.9809375 7.40664063 -4.359375 7.51953125 C4.50506155 9.27812108 4.50506155 9.27812108 6.8125 12.1875 C7.54293478 18.03097826 7.54293478 18.03097826 5.734375 20.89453125 C2.76631292 22.89133724 0.14479692 22.47187514 -3.375 22.375 C-5.28345703 22.33439453 -5.28345703 22.33439453 -7.23046875 22.29296875 C-8.20628906 22.25816406 -9.18210938 22.22335937 -10.1875 22.1875 C-10.1875 19.2175 -10.1875 16.2475 -10.1875 13.1875 C-7.1875 14.1875 -7.1875 14.1875 -5.8125 16.6875 C-4.41184021 19.40529859 -4.41184021 19.40529859 -1.625 20.0625 C0.82085039 20.38850587 0.82085039 20.38850587 2.8125 19.1875 C2.8125 17.8675 2.8125 16.5475 2.8125 15.1875 C1.63880859 14.78917969 1.63880859 14.78917969 0.44140625 14.3828125 C-1.07646484 13.85300781 -1.07646484 13.85300781 -2.625 13.3125 C-3.63433594 12.96445312 -4.64367187 12.61640625 -5.68359375 12.2578125 C-8.1875 11.1875 -8.1875 11.1875 -9.1875 9.1875 C-9.64074446 3.86187757 -9.64074446 3.86187757 -8.05859375 1.5078125 C-5.35400438 -0.40064513 -3.26706804 -0.10538929 0 0 Z " fill="#FBFBFB" transform="translate(244.1875,275.8125)"/>
<path d="M0 0 C4.29 0 8.58 0 13 0 C12.01 0.66 11.02 1.32 10 2 C9.5835465 4.42099355 9.5835465 4.42099355 9.70703125 7.2265625 C9.7215332 8.7734375 9.7215332 8.7734375 9.73632812 10.3515625 C9.76146484 11.43179687 9.78660156 12.51203125 9.8125 13.625 C9.82603516 14.71296875 9.83957031 15.8009375 9.85351562 16.921875 C9.88895246 19.61507409 9.93835669 22.30729374 10 25 C14.4675445 25.32188825 14.4675445 25.32188825 18.25 23.25 C19.83145927 21.21669523 20.98828546 19.36066727 22 17 C22.66 17 23.32 17 24 17 C24 20.3 24 23.6 24 27 C16.08 27 8.16 27 0 27 C1.32 26.67 2.64 26.34 4 26 C4 18.08 4 10.16 4 2 C2.68 1.34 1.36 0.68 0 0 Z " fill="#FDFDFD" transform="translate(340,319)"/>
<path d="M0 0 C2.71499506 2.71499506 3.7444795 5.9267505 5.125 9.4375 C5.40214844 10.11876953 5.67929687 10.80003906 5.96484375 11.50195312 C7.14842926 14.47840831 8 16.76799028 8 20 C2.72 20 -2.56 20 -8 20 C-5.36 13.4 -2.72 6.8 0 0 Z " fill="#000000" transform="translate(49,231)"/>
<path d="M0 0 C3.63 0 7.26 0 11 0 C10.01 0.66 9.02 1.32 8 2 C7.59564805 5.25183007 7.59564805 5.25183007 7.75 8.9375 C7.76546875 10.18402344 7.7809375 11.43054688 7.796875 12.71484375 C7.85905217 16.00562091 7.85905217 16.00562091 9 19 C12.28696233 19.79953138 13.71023192 20.09658936 17 19 C18.47694068 16.04611864 18.20930797 13.34838118 18.25 10.0625 C18.27578125 8.81597656 18.3015625 7.56945312 18.328125 6.28515625 C18.31880886 2.68547996 18.31880886 2.68547996 15 0 C18.3 0 21.6 0 25 0 C24.01 0.99 23.02 1.98 22 3 C21.72599851 5.5352348 21.57952104 7.90136564 21.5625 10.4375 C21.46123477 17.34378871 21.46123477 17.34378871 19.28125 20.4453125 C16.59412084 22.27660942 15.16335277 22.51048309 11.9375 22.4375 C11.08027344 22.43621094 10.22304687 22.43492187 9.33984375 22.43359375 C6.55829514 21.91814818 5.68746592 21.23418385 4 19 C2.7937748 15.38132441 2.89183082 12.07493749 2.9375 8.3125 C2.94201172 7.61060547 2.94652344 6.90871094 2.95117188 6.18554688 C2.96293073 4.45699462 2.98086546 2.72848635 3 1 C2.01 0.67 1.02 0.34 0 0 Z " fill="#FCFCFC" transform="translate(207,276)"/>
<path d="M0 0 C4.29 0 8.58 0 13 0 C11.02 0.99 11.02 0.99 9 2 C9 9.59 9 17.18 9 25 C10.32 25.66 11.64 26.32 13 27 C8.71 27 4.42 27 0 27 C0.99 26.34 1.98 25.68 3 25 C3.46559958 22.6148508 3.46559958 22.6148508 3.3984375 19.84375 C3.40230469 18.82152344 3.40617187 17.79929687 3.41015625 16.74609375 C3.39855469 15.67488281 3.38695313 14.60367187 3.375 13.5 C3.38660156 12.42878906 3.39820312 11.35757812 3.41015625 10.25390625 C3.40628906 9.23167969 3.40242188 8.20945312 3.3984375 7.15625 C3.39505371 6.21587891 3.39166992 5.27550781 3.38818359 4.30664062 C3.26008301 3.54544922 3.13198242 2.78425781 3 2 C2.01 1.34 1.02 0.68 0 0 Z " fill="#FEFEFE" transform="translate(103,319)"/>
<path d="M0 0 C3.96 0 7.92 0 12 0 C10.02 0.99 10.02 0.99 8 2 C7.30367785 3.95365445 7.30367785 3.95365445 7.25 6.125 C7.1675 7.40375 7.085 8.6825 7 10 C8.65 10 10.3 10 12 10 C12 10.33 12 10.66 12 11 C10.35 11 8.7 11 7 11 C7.06006078 12.45947705 7.1488689 13.91779272 7.25 15.375 C7.29640625 16.18710937 7.3428125 16.99921875 7.390625 17.8359375 C7.59171875 18.55007813 7.7928125 19.26421875 8 20 C9.32 20.66 10.64 21.32 12 22 C8.04 22 4.08 22 0 22 C0.99 21.67 1.98 21.34 3 21 C3 14.4 3 7.8 3 1 C2.01 0.67 1.02 0.34 0 0 Z " fill="#FCFCFC" transform="translate(184,276)"/>
<path d="M0 0 C3.63 0 7.26 0 11 0 C10.01 0.33 9.02 0.66 8 1 C8 7.6 8 14.2 8 21 C8.99 21.33 9.98 21.66 11 22 C7.37 22 3.74 22 0 22 C0.99 21.34 1.98 20.68 3 20 C3.46262531 18.10574827 3.46262531 18.10574827 3.3984375 15.9375 C3.40230469 15.14085937 3.40617188 14.34421875 3.41015625 13.5234375 C3.39855469 12.69070313 3.38695312 11.85796875 3.375 11 C3.38660156 10.16726563 3.39820313 9.33453125 3.41015625 8.4765625 C3.40628906 7.67992187 3.40242187 6.88328125 3.3984375 6.0625 C3.39505371 5.33160156 3.39166992 4.60070312 3.38818359 3.84765625 C3.13826354 1.58645877 3.13826354 1.58645877 0 0 Z " fill="#FCFCFC" transform="translate(139,276)"/>
<path d="M0 0 C1.7866789 2.68001835 2.9322137 5.03128744 4.125 8 C4.65480469 9.299375 4.65480469 9.299375 5.1953125 10.625 C6 13 6 13 6 16 C2.04 16 -1.92 16 -6 16 C-4.02 10.72 -2.04 5.44 0 0 Z " fill="#000000" transform="translate(153,229)"/>
<path d="M0 0 C3.5 0.3125 3.5 0.3125 7 1 C8.43060128 3.86120256 8.38692581 5.84010585 8 9 C4.75566237 11.70361469 3.29107948 12 -1 12 C-1.02687279 10.18757948 -1.04633715 8.37504767 -1.0625 6.5625 C-1.07410156 5.55316406 -1.08570313 4.54382813 -1.09765625 3.50390625 C-1 1 -1 1 0 0 Z " fill="#000000" transform="translate(227,320)"/>
<path d="M0 0 C0.33 1.32 0.66 2.64 1 4 C2.65 3.01 4.3 2.02 6 1 C5.34 2.65 4.68 4.3 4 6 C5.65 6.33 7.3 6.66 9 7 C9 7.33 9 7.66 9 8 C7.35 8.33 5.7 8.66 4 9 C3.67 9.99 3.34 10.98 3 12 C2.34 11.67 1.68 11.34 1 11 C1 11.99 1 12.98 1 14 C0.34 14 -0.32 14 -1 14 C-1 13.01 -1 12.02 -1 11 C-2.32 11.33 -3.64 11.66 -5 12 C-4.67 11.01 -4.34 10.02 -4 9 C-5.65 8.67 -7.3 8.34 -9 8 C-9 7.67 -9 7.34 -9 7 C-7.35 7 -5.7 7 -4 7 C-4.99 5.02 -5.98 3.04 -7 1 C-5 2 -3 3 -1 4 C-0.67 2.68 -0.34 1.36 0 0 Z " fill="#0B0B0B" transform="translate(189,32)"/>
<path d="M0 0 C5.42857143 -0.36190476 5.42857143 -0.36190476 7.875 1.1875 C9.34781139 3.56036279 9.22223194 5.25913944 9 8 C6.42786866 9.61949011 5.32330841 10.04408751 2.25 9.625 C1.13625 9.315625 1.13625 9.315625 0 9 C0 6.03 0 3.06 0 0 Z " fill="#000000" transform="translate(191,287)"/>
<path d="M0 0 C5.71428571 0.71428571 5.71428571 0.71428571 7 2 C7.25 4.4375 7.25 4.4375 7 7 C3.77208445 9.1519437 2.71599191 9.20086443 -1 9 C-1.09765625 2.84765625 -1.09765625 2.84765625 -1 1 C-0.67 0.67 -0.34 0.34 0 0 Z " fill="#000000" transform="translate(192,277)"/>
<path d="M0 0 C3.34905453 3.34905453 3.89470285 5.49378854 5 10 C2.36 10 -0.28 10 -3 10 C-2.01 6.7 -1.02 3.4 0 0 Z " fill="#000000" transform="translate(309,326)"/>
</svg>
